<svg xmlns="http://www.w3.org/2000/svg" viewBox="0 0 200 160" fill="none">
  <!-- Globe/planet -->
  <circle cx="100" cy="72" r="42" fill="#1A1A2A" stroke="#2A2A3E" stroke-width="1.8"/>
  <!-- Latitude lines -->
  <ellipse cx="100" cy="72" rx="42" ry="42" fill="none" stroke="#222235" stroke-width="1"/>
  <ellipse cx="100" cy="72" rx="42" ry="18" fill="none" stroke="#222235" stroke-width="1"/>
  <line x1="58" y1="72" x2="142" y2="72" stroke="#222235" stroke-width="0.8"/>
  <!-- Longitude lines -->
  <ellipse cx="100" cy="72" rx="14" ry="42" fill="none" stroke="#222235" stroke-width="1"/>
  <!-- Continent blobs -->
  <path d="M75 48C82 44 95 46 100 52C105 46 115 44 120 48" stroke="#2D2D44" stroke-width="1.5" stroke-linecap="round" fill="none"/>
  <path d="M68 88C75 82 90 85 95 78C100 85 115 82 125 88" stroke="#2D2D44" stroke-width="1.5" stroke-linecap="round" fill="none"/>
  <!-- No markers/pins -->
  <!-- Neon ring glow -->
  <circle cx="100" cy="72" r="42" fill="none" stroke="#00B4D8" stroke-width="1.5" opacity="0.3"/>
  <!-- Location marker with cross -->
  <path d="M100 34C95 34 92 38 92 43C92 48.5 100 54 100 54C100 54 108 48.5 108 43C108 38 105 34 100 34Z" fill="none" stroke="#505068" stroke-width="1.2" stroke-linecap="round" stroke-linejoin="round"/>
  <line x1="100" y1="46" x2="100" y2="50" stroke="#505068" stroke-width="1.2"/>
  <!-- Double sparkle -->
  <path d="M150 28L150.5 30L152 30.5L150.5 31L150 33L149.5 31L148 30.5L149.5 30Z" fill="#00B4D8" opacity="0.4"/>
  <path d="M155 40L155.3 41.5L157 41.8L155.3 42L155 43.5L154.7 42L153 41.8L154.7 41.5Z" fill="#00B4D8" opacity="0.2"/>
</svg>
